<?xml version="1.0" encoding="UTF-8" standalone="no"?>
<!-- Created with Inkscape (http://www.inkscape.org/) -->

<svg
   version="1.1"
   id="svg2"
   xml:space="preserve"
   width="315.80933"
   height="316"
   viewBox="0 0 315.80933 316"
   sodipodi:docname="University_of_Tehran_logo_new.svg"
   inkscape:version="1.1 (c68e22c387, 2021-05-23)"
   xmlns:inkscape="http://www.inkscape.org/namespaces/inkscape"
   xmlns:sodipodi="http://sodipodi.sourceforge.net/DTD/sodipodi-0.dtd"
   xmlns="http://www.w3.org/2000/svg"
   xmlns:svg="http://www.w3.org/2000/svg"><defs
     id="defs6"><clipPath
       clipPathUnits="userSpaceOnUse"
       id="clipPath16"><path
         d="M 0,1080 H 1080 V 0 H 0 Z"
         id="path14" /></clipPath></defs><sodipodi:namedview
     id="namedview4"
     pagecolor="#ffffff"
     bordercolor="#666666"
     borderopacity="1.0"
     inkscape:pageshadow="2"
     inkscape:pageopacity="0.0"
     inkscape:pagecheckerboard="0"
     showgrid="false"
     fit-margin-top="0"
     fit-margin-left="0"
     fit-margin-right="0"
     fit-margin-bottom="0"
     inkscape:zoom="1.5474684"
     inkscape:cx="158"
     inkscape:cy="158"
     inkscape:window-width="1366"
     inkscape:window-height="697"
     inkscape:window-x="-8"
     inkscape:window-y="-8"
     inkscape:window-maximized="1"
     inkscape:current-layer="g8" /><g
     id="g8"
     inkscape:groupmode="layer"
     inkscape:label="University_of_Tehran_logo_new"
     transform="matrix(1.3333333,0,0,-1.3333333,-302.55546,1138.667)"><g
       id="g12"
       clip-path="url(#clipPath16)"
       transform="matrix(0.37830419,0,0,0.37830419,141.0731,530.92841)"><g
         id="g18"
         transform="translate(837.2598,540.0503)"><path
           d="M 0,0 C 10,4.28 16.61,14.59 15.67,26.03 14.74,37.36 6.68,46.39 -3.74,49.08 5.25,55 9.95,66.16 7.16,77.18 4.37,88.2 -5.08,95.79 -15.81,96.71 c 7.9,7.33 10.69,19.12 6.11,29.53 -4.57,10.4 -15.13,16.31 -25.86,15.46 6.56,8.52 7.36,20.6 1.14,30.1 -6.23,9.51 -17.62,13.59 -28.059,10.98 5.069,9.49 3.889,21.53 -3.811,29.89 -7.7,8.36 -19.62,10.52 -29.48,6.24 3.45,10.18 0.32,21.88 -8.65,28.86 -8.97,6.99 -21.08,7.18 -30.12,1.32 1.75,10.63 -3.27,21.66 -13.27,27.08 -10.01,5.42 -22,3.6 -29.95,-3.67 -0.02,10.78 -6.8,20.83 -17.57,24.53 -10.76,3.69 -22.27,-0.08 -28.91,-8.56 -1.82,10.61 -10.17,19.39 -21.38,21.25 -11.22,1.86 -21.94,-3.76 -27.09,-13.2 -3.54,10.15 -13.19,17.43 -24.55,17.43 h -0.79 c -11.36,-0.03 -21,-7.34 -24.51,-17.5 -5.17,9.44 -15.91,15.03 -27.12,13.14 -11.22,-1.89 -19.54,-10.69 -21.33,-21.3 -6.66,8.46 -18.19,12.2 -28.93,8.48 -10.74,-3.71 -17.49,-13.76 -17.51,-24.51 -7.97,7.22 -19.94,8.99 -29.91,3.55 -9.98,-5.44 -14.97,-16.46 -13.21,-27.07 -9.05,5.81 -21.15,5.6 -30.1,-1.41 -8.94,-7 -12.06,-18.7 -8.58,-28.88 -9.88,4.26 -21.78,2.07 -29.46,-6.3 -7.69,-8.38 -8.84,-20.44 -3.74,-29.91 -10.44,2.59 -21.84,-1.52 -28.05,-11.05 -6.21,-9.53 -5.37,-21.62 1.24,-30.13 -10.74,0.84 -21.31,-5.09 -25.87,-15.52 -4.56,-10.43 -1.73,-22.23 6.2,-29.53 -10.74,-0.94 -20.18,-8.55 -22.95,-19.6 -2.76,-11.03 1.97,-22.18 10.98,-28.07 -10.41,-2.72 -18.45,-11.77 -19.36,-23.1 -0.91,-11.44 5.73,-21.75 15.75,-26 -9.77,-4.55 -16.06,-14.92 -14.9,-26.24 1.15,-11.17 9.21,-19.95 19.5,-22.55 -8.86,-5.9 -13.53,-16.91 -10.85,-27.84 2.68,-10.98 11.98,-18.61 22.62,-19.691 -7.97,-7.179 -10.94,-18.869 -6.58,-29.329 4.38,-10.49 14.84,-16.6 25.59,-15.94 -6.73,-8.43 -7.73,-20.52 -1.63,-30.14 6.11,-9.64 17.51,-13.89 28.02,-11.37 -5.17,-9.49 -4.03,-21.62 3.69,-30.03 7.72,-8.41 19.71,-10.57 29.61,-6.22 -3.41,-10.26 -0.14,-21.99 8.95,-28.9 9.07,-6.9 21.22,-6.92 30.19,-0.92 -1.56,-10.67 3.67,-21.62 13.78,-26.861 10.11,-5.219 22.05,-3.179 29.86,4.241 0.25,-10.76 7.2,-20.66 18.01,-24.15 10.8,-3.49 22.22,0.46 28.71,9.02 1.96,-10.55 10.39,-19.2 21.59,-20.93 11.2,-1.74 21.84,3.95 26.9,13.4 3.57,-10.09 13.2,-17.31 24.52,-17.32 h 0.03 0.01 c 11.32,0.02 20.95,7.28 24.5,17.39 5.09,-9.43 15.73,-15.09 26.93,-13.33 11.2,1.76 19.6,10.429 21.53,20.99 6.52,-8.54 17.94,-12.47 28.73,-8.96 10.81,3.52 17.74,13.45 17.96,24.2 7.82,-7.4 19.78,-9.42 29.87,-4.17 10.11,5.27 15.32,16.25 13.72,26.92 8.99,-6 21.15,-5.95 30.22,0.98 9.07,6.929 12.31,18.67 8.87,28.929 9.91,-4.329 21.9,-2.139 29.6,6.29 7.7,8.431 8.81,20.561 3.61,30.041 10.52,-2.49 21.91,1.78 27.99,11.44 l 0.01,-0.01 c 6.07,9.64 5.04,21.73 -1.7,30.14 10.74,-0.63 21.19,5.51 25.54,16.01 4.34,10.46 1.33,22.14 -6.64,29.31 10.63,1.1 19.91,8.75 22.57,19.74 2.65,10.93 -2.04,21.93 -10.91,27.81 10.28,2.62 18.32,11.42 19.45,22.58 C 16.1,-14.89 9.79,-4.53 0,0"
           style="fill:#0baedd;fill-opacity:1;fill-rule:nonzero;stroke:none"
           id="path20" /></g><g
         id="g22"
         transform="translate(518.2798,827.9502)"><path
           d="m 0,0 c -0.03,11.6 9.35,21.02 20.95,21.05 h 0.41 0.36 c 11.6,0 21,-9.4 21,-21 0,-11.6 -9.4,-21 -21,-21 H 21.36 21.05 20.99 C 9.42,-20.95 0.02,-11.58 0,0 M 65.68,-24.55 C 54.24,-22.65 46.5,-11.84 48.39,-0.4 50.28,11.04 61.1,18.78 72.54,16.89 83.98,14.99 91.72,4.18 89.83,-7.26 c -1.7,-10.28 -10.61,-17.57 -20.7,-17.57 -1.13,0 -2.29,0.09 -3.45,0.28 M -47.1,-7.43 c -1.92,11.43 5.79,22.27 17.23,24.19 11.44,1.92 22.27,-5.79 24.19,-17.23 1.92,-11.44 -5.79,-22.27 -17.22,-24.19 -1.18,-0.2 -2.36,-0.29 -3.51,-0.29 -10.07,0 -18.96,7.26 -20.69,17.52 m 155.5,-27.9 c -10.97,3.77 -16.81,15.71 -13.05,26.68 3.77,10.97 15.71,16.81 26.68,13.05 10.97,-3.76 16.81,-15.71 13.05,-26.68 -2.99,-8.71 -11.14,-14.19 -19.86,-14.19 -2.26,0 -4.56,0.37 -6.82,1.14 m -200.71,12.76 c -3.79,10.96 2.02,22.92 12.98,26.71 10.96,3.8 22.92,-2.02 26.71,-12.98 3.79,-10.96 -2.02,-22.92 -12.98,-26.71 -2.27,-0.79 -4.59,-1.16 -6.86,-1.16 -8.71,0 -16.85,5.45 -19.85,14.14 m 241.08,-30.48 v 0 c -10.2,5.53 -13.98,18.27 -8.46,28.47 5.53,10.19 18.28,13.98 28.47,8.45 h 0.01 c 10.19,-5.53 13.98,-18.27 8.45,-28.47 -3.81,-7.02 -11.03,-11 -18.48,-11 -3.38,0.01 -6.81,0.82 -9.99,2.55 m -283.14,8.08 c -5.55,10.19 -1.8,22.94 8.38,28.49 10.19,5.56 22.94,1.8 28.49,-8.38 5.55,-10.19 1.8,-22.94 -8.38,-28.49 -3.19,-1.74 -6.64,-2.57 -10.03,-2.57 -7.44,0 -14.65,3.96 -18.46,10.95 M 185.67,-77.2 v 0 c -9.15,7.13 -10.78,20.32 -3.66,29.47 7.13,9.15 20.33,10.79 29.48,3.66 9.15,-7.13 10.78,-20.32 3.65,-29.47 -4.14,-5.32 -10.32,-8.1 -16.58,-8.1 -4.51,0 -9.05,1.45 -12.89,4.44 m -357.86,3.22 c -7.15,9.13 -5.54,22.33 3.59,29.48 9.13,7.15 22.33,5.54 29.48,-3.6 7.15,-9.13 5.54,-22.33 -3.59,-29.48 -3.85,-3 -8.4,-4.46 -12.93,-4.46 -6.24,0 -12.41,2.77 -16.55,8.06 m 390.31,-33.1 c -7.85,8.53 -7.31,21.82 1.22,29.67 8.53,7.86 21.81,7.32 29.67,-1.21 7.86,-8.53 7.32,-21.81 -1.21,-29.67 -4.04,-3.72 -9.14,-5.56 -14.23,-5.56 -5.66,0 -11.31,2.28 -15.45,6.77 m -422.89,-1.72 c -8.54,7.84 -9.12,21.12 -1.28,29.67 7.84,8.54 21.13,9.12 29.67,1.28 8.55,-7.84 9.12,-21.13 1.28,-29.67 -4.14,-4.52 -9.8,-6.81 -15.48,-6.81 -5.07,0 -10.16,1.83 -14.19,5.53 m 450.01,-33.05 c -6.35,9.7 -3.64,22.72 6.06,29.07 9.7,6.35 22.72,3.64 29.07,-6.06 h 0.01 c 6.35,-9.7 3.64,-22.72 -6.06,-29.07 -3.55,-2.33 -7.54,-3.44 -11.49,-3.44 -6.85,0 -13.56,3.34 -17.59,9.5 m -476.44,-6.65 c -9.72,6.34 -12.46,19.35 -6.13,29.06 6.34,9.72 19.35,12.46 29.06,6.13 9.72,-6.33 12.46,-19.34 6.13,-29.06 -4.03,-6.18 -10.75,-9.54 -17.61,-9.54 -3.93,0 -7.91,1.11 -11.45,3.41 m 497.46,-32.08 v 0 c -4.67,10.62 0.15,23.01 10.77,27.68 10.62,4.67 23.01,-0.16 27.68,-10.77 h -0.01 c 4.67,-10.62 -0.15,-23.01 -10.76,-27.68 -2.75,-1.21 -5.62,-1.78 -8.45,-1.78 -8.07,0 -15.77,4.68 -19.23,12.55 m -516.99,-11.43 c -10.63,4.64 -15.48,17.02 -10.84,27.65 4.64,10.63 17.02,15.48 27.65,10.84 10.63,-4.65 15.48,-17.02 10.84,-27.65 -3.45,-7.9 -11.16,-12.6 -19.25,-12.6 -2.81,0 -5.66,0.56 -8.4,1.76 m 531.31,-30.24 c -2.84,11.24 3.96,22.67 15.21,25.51 11.24,2.85 22.66,-3.96 25.51,-15.21 2.84,-11.24 -3.97,-22.66 -15.21,-25.51 -1.73,-0.43 -3.46,-0.64 -5.17,-0.64 -9.38,0 -17.93,6.34 -20.34,15.85 m -543.36,-15.92 c -11.25,2.81 -18.09,14.22 -15.27,25.47 2.82,11.25 14.22,18.09 25.47,15.27 11.25,-2.81 18.09,-14.22 15.27,-25.47 -2.38,-9.54 -10.95,-15.91 -20.35,-15.91 -1.69,0 -3.41,0.21 -5.12,0.64 m 550.59,-27.56 v 0 c -0.95,11.56 7.64,21.71 19.2,22.66 11.56,0.95 21.71,-7.65 22.66,-19.21 0.95,-11.56 -7.65,-21.7 -19.21,-22.65 -0.59,-0.05 -1.17,-0.07 -1.75,-0.07 -10.81,0 -20,8.3 -20.9,19.27 m -554.84,-19.93 c -11.56,0.92 -20.18,11.04 -19.26,22.6 0.92,11.57 11.04,20.19 22.6,19.27 11.56,-0.93 20.19,-11.05 19.27,-22.61 -0.88,-10.99 -10.08,-19.33 -20.92,-19.33 -0.56,0 -1.12,0.02 -1.69,0.07 m 572.99,-46.74 c -11.54,1.16 -19.95,11.46 -18.78,23 1.16,11.54 11.46,19.95 23,18.78 11.54,-1.16 19.95,-11.46 18.78,-23 -1.09,-10.82 -10.21,-18.89 -20.86,-18.89 -0.71,0 -1.42,0.03 -2.14,0.11 m -591.41,18.01 v 0 c -1.19,11.54 7.2,21.85 18.74,23.04 11.53,1.19 21.85,-7.2 23.04,-18.74 1.19,-11.54 -7.2,-21.85 -18.74,-23.04 -0.73,-0.08 -1.46,-0.11 -2.18,-0.11 -10.63,0 -19.75,8.05 -20.86,18.85 m 580.64,-64.42 c -11.27,2.74 -18.2,14.09 -15.46,25.36 2.73,11.27 14.08,18.19 25.35,15.46 11.27,-2.73 18.2,-14.08 15.46,-25.36 -2.32,-9.6 -10.92,-16.05 -20.39,-16.05 -1.64,0 -3.3,0.19 -4.96,0.59 m -572.12,14.71 v 0 c -2.76,11.27 4.14,22.63 15.41,25.39 11.27,2.76 22.63,-4.14 25.39,-15.41 2.75,-11.26 -4.15,-22.63 -15.41,-25.39 -1.68,-0.41 -3.36,-0.6 -5.01,-0.6 -9.45,0 -18.03,6.42 -20.38,16.01 m 554.34,-58.91 c -10.71,4.44 -15.8,16.72 -11.36,27.44 4.44,10.71 16.73,15.8 27.44,11.35 10.72,-4.44 15.8,-16.72 11.36,-27.44 -3.35,-8.08 -11.17,-12.96 -19.41,-12.96 -2.68,0 -5.4,0.52 -8.03,1.61 m -538.53,10.63 v 0 c -4.47,10.7 0.58,23 11.29,27.47 10.7,4.47 23,-0.59 27.47,-11.29 4.46,-10.71 -0.59,-23 -11.3,-27.47 -2.64,-1.11 -5.38,-1.63 -8.08,-1.63 -8.22,0 -16.02,4.86 -19.38,12.92 m 513.55,-51.23 c -9.81,6.19 -12.75,19.16 -6.56,28.97 6.19,9.81 19.16,12.75 28.97,6.56 9.81,-6.19 12.74,-19.16 6.56,-28.97 -4,-6.33 -10.82,-9.8 -17.79,-9.8 -3.83,0 -7.7,1.05 -11.18,3.24 m -489.99,5.89 c -6.21,9.8 -3.3,22.77 6.49,28.99 9.79,6.21 22.77,3.3 28.98,-6.49 6.21,-9.8 3.31,-22.77 -6.49,-28.98 -3.49,-2.22 -7.38,-3.27 -11.22,-3.27 -6.96,0 -13.76,3.45 -17.76,9.75 m 458.22,-41.44 c -8.56,7.83 -9.16,21.11 -1.34,29.67 7.82,8.56 21.11,9.16 29.67,1.34 8.56,-7.82 9.16,-21.1 1.34,-29.67 -4.14,-4.53 -9.82,-6.83 -15.51,-6.83 -5.06,0 -10.13,1.81 -14.16,5.49 m -427.05,0.75 v 0.01 c -7.84,8.54 -7.28,21.82 1.27,29.67 8.54,7.84 21.83,7.27 29.67,-1.27 7.84,-8.54 7.28,-21.83 -1.27,-29.67 -4.03,-3.7 -9.12,-5.53 -14.2,-5.53 -5.67,0 -11.33,2.28 -15.47,6.79 m 389.47,-30.1 c -7.05,9.22 -5.29,22.4 3.93,29.44 9.22,7.04 22.39,5.28 29.44,-3.93 7.04,-9.22 5.28,-22.39 -3.94,-29.44 -3.8,-2.91 -8.29,-4.31 -12.73,-4.31 -6.32,0 -12.57,2.84 -16.7,8.24 m -351.57,-4.42 c -9.23,7.02 -11.02,20.19 -4,29.43 7.02,9.23 20.19,11.02 29.42,4 9.24,-7.02 11.03,-20.19 4.01,-29.43 -4.13,-5.43 -10.39,-8.29 -16.73,-8.29 -4.43,0 -8.9,1.4 -12.7,4.29 m 309.47,-18.01 c -5.35,10.29 -1.35,22.97 8.93,28.33 10.29,5.35 22.97,1.35 28.33,-8.94 5.35,-10.29 1.35,-22.96 -8.94,-28.32 -3.09,-1.61 -6.41,-2.37 -9.67,-2.37 -7.58,0 -14.91,4.11 -18.65,11.3 m -266.22,-9.31 c -10.3,5.33 -14.33,18.01 -9,28.31 5.33,10.3 18,14.33 28.3,9 10.31,-5.33 14.34,-18 9,-28.3 -3.73,-7.22 -11.06,-11.36 -18.66,-11.36 -3.25,0 -6.55,0.76 -9.64,2.35 m 221.01,-5.86 c -3.59,11.03 2.44,22.88 13.47,26.46 11.03,3.59 22.88,-2.44 26.47,-13.47 3.58,-11.02 -2.44,-22.87 -13.47,-26.46 -2.16,-0.71 -4.35,-1.04 -6.5,-1.04 -8.85,0 -17.08,5.64 -19.97,14.51 m -173.9,-13.74 c -11.04,3.57 -17.1,15.41 -13.53,26.44 3.56,11.04 15.4,17.1 26.43,13.53 11.04,-3.56 17.1,-15.39 13.54,-26.43 -2.88,-8.9 -11.12,-14.56 -19.99,-14.56 -2.13,0 -4.31,0.33 -6.45,1.02 m 126.86,5.9 c -1.81,11.45 6.02,22.2 17.48,24.01 v -0.01 c 11.45,1.81 22.2,-6.02 24.01,-17.47 1.8,-11.46 -6.02,-22.21 -17.48,-24.01 -1.11,-0.18 -2.21,-0.26 -3.29,-0.26 -10.16,0 -19.09,7.38 -20.72,17.74 m -77.33,-17.62 c -11.46,1.77 -19.32,12.5 -17.54,23.96 1.77,11.46 12.5,19.32 23.96,17.54 11.46,-1.77 19.32,-12.5 17.54,-23.96 -1.6,-10.38 -10.54,-17.79 -20.73,-17.79 -1.06,0 -2.15,0.08 -3.23,0.25 m 29.65,17.11 c -0.02,11.6 9.37,21.02 20.97,21.03 11.59,0.02 21.01,-9.37 21.03,-20.96 0.01,-11.6 -9.37,-21.02 -20.97,-21.04 h -0.03 c -11.58,0 -20.99,9.39 -21,20.97"
           style="fill:#ffffff;fill-opacity:1;fill-rule:nonzero;stroke:none"
           id="path24" /></g><g
         id="g26"
         transform="translate(288.4534,416.3406)"><path
           d="m 0,0 c -1.033,-0.805 -2.177,-1.5 -3.444,-2.03 -1.88,-0.78 -3.84,-1.16 -5.77,-1.16 -5.87,0 -11.44,3.469 -13.85,9.229 -1.142,2.737 -1.399,5.619 -0.923,8.341 -2.138,-3.663 -2.607,-8.243 -0.847,-12.461 V 1.93 c 2.24,-5.38 7.441,-8.62 12.921,-8.62 1.799,0 3.629,0.349 5.389,1.09 2.82,1.178 5.04,3.179 6.524,5.6"
           style="fill:#0baedd;fill-opacity:1;fill-rule:nonzero;stroke:none"
           id="path28" /></g><g
         id="g30"
         transform="translate(273.7004,461.5482)"><path
           d="m 0,0 c -1.631,-1.281 -3.545,-2.253 -5.691,-2.778 -1.19,-0.29 -2.39,-0.43 -3.569,-0.43 -6.75,0 -12.891,4.59 -14.56,11.43 -0.51,2.081 -0.55,4.163 -0.203,6.146 -1.777,-3.031 -2.429,-6.725 -1.527,-10.406 1.56,-6.39 7.29,-10.67 13.589,-10.67 1.1,0 2.221,0.13 3.34,0.4 C -4.879,-5.391 -1.86,-3.048 0,0"
           style="fill:#0baedd;fill-opacity:1;fill-rule:nonzero;stroke:none"
           id="path32" /></g><g
         id="g34"
         transform="translate(309.1899,373.3105)"><path
           d="m 0,0 c -2.49,-1.58 -5.27,-2.33 -8.02,-2.33 -4.96,0 -9.82,2.46 -12.68,6.97 -2.088,3.287 -2.717,7.074 -2.089,10.63 -2.577,-4.385 -2.68,-10.013 0.229,-14.6 2.67,-4.2 7.2,-6.5 11.84,-6.5 2.56,0 5.16,0.71 7.48,2.18 1.854,1.175 3.324,2.722 4.404,4.473 C 0.791,0.535 0.406,0.257 0,0"
           style="fill:#0baedd;fill-opacity:1;fill-rule:nonzero;stroke:none"
           id="path36" /></g><g
         id="g38"
         transform="translate(255.1499,501.7803)"><path
           d="M 0,0 C 4.511,0.469 8.29,3.036 10.495,6.623 8.344,4.94 5.717,3.811 2.8,3.51 2.28,3.45 1.76,3.43 1.25,3.43 c -7.59,0 -14.11,5.75 -14.9,13.46 -0.145,1.41 -0.077,2.792 0.156,4.123 -1.46,-2.483 -2.183,-5.429 -1.866,-8.513 0.74,-7.21 6.83,-12.57 13.91,-12.57 0.48,0 0.97,0.02 1.45,0.07"
           style="fill:#0baedd;fill-opacity:1;fill-rule:nonzero;stroke:none"
           id="path40" /></g><g
         id="g42"
         transform="translate(405.3799,275.8506)"><path
           d="m 0,0 c -2.32,0 -4.68,0.54 -6.88,1.68 -5.951,3.08 -8.968,9.585 -7.894,15.853 -0.115,-0.198 -0.24,-0.388 -0.346,-0.594 -3.55,-6.87 -0.87,-15.32 6,-18.87 C -7.06,-2.99 -4.86,-3.5 -2.7,-3.5 2.052,-3.5 6.645,-1.076 9.253,3.188 6.61,1.125 3.342,0 0,0"
           style="fill:#0baedd;fill-opacity:1;fill-rule:nonzero;stroke:none"
           id="path44" /></g><g
         id="g46"
         transform="translate(402.3599,779.0303)"><path
           d="M 0,0 C 2.26,0 4.56,0.55 6.69,1.71 8.918,2.926 10.674,4.668 11.911,6.691 11.274,6.194 10.602,5.73 9.87,5.33 7.59,4.09 5.13,3.5 2.7,3.5 c -5.31,0 -10.46,2.83 -13.18,7.82 -1.691,3.1 -2.165,6.53 -1.603,9.755 C -14.476,16.977 -14.746,11.77 -12.31,7.3 -9.77,2.64 -4.96,0 0,0"
           style="fill:#0baedd;fill-opacity:1;fill-rule:nonzero;stroke:none"
           id="path48" /></g><g
         id="g50"
         transform="translate(330.0601,333.25)"><path
           d="m 0,0 c -4.05,0 -8.09,1.63 -11.05,4.851 -3.286,3.578 -4.49,8.322 -3.703,12.766 -3.054,-5.17 -2.531,-11.929 1.743,-16.587 2.76,-3.009 6.53,-4.53 10.31,-4.53 3.39,0 6.78,1.22 9.47,3.69 C 7.745,1.087 8.552,2.095 9.214,3.171 6.495,1.05 3.25,0 0,0"
           style="fill:#0baedd;fill-opacity:1;fill-rule:nonzero;stroke:none"
           id="path52" /></g><g
         id="g54"
         transform="translate(251.8101,549.27)"><path
           d="m 0,0 c 0.38,-0.03 0.75,-0.05 1.12,-0.05 4.988,0 9.451,2.648 11.934,6.697 C 10.492,4.64 7.279,3.45 3.83,3.45 3.43,3.45 3.02,3.47 2.62,3.5 -5.64,4.16 -11.8,11.39 -11.14,19.65 v -0.01 c 0.037,0.466 0.102,0.923 0.18,1.374 -1.034,-1.763 -1.708,-3.771 -1.88,-5.944 C -13.46,7.36 -7.71,0.61 0,0"
           style="fill:#0baedd;fill-opacity:1;fill-rule:nonzero;stroke:none"
           id="path56" /></g><g
         id="g58"
         transform="translate(365.1899,301.2305)"><path
           d="m 0,0 c -3.16,0 -6.35,1 -9.06,3.06 v 0.009 c -4.621,3.509 -6.623,9.172 -5.695,14.515 C -18.3,11.561 -16.869,3.697 -11.16,-0.641 -8.63,-2.57 -5.65,-3.5 -2.7,-3.5 1.53,-3.5 5.7,-1.59 8.46,2.029 8.75,2.412 9.018,2.804 9.263,3.205 6.586,1.102 3.312,0 0,0"
           style="fill:#0baedd;fill-opacity:1;fill-rule:nonzero;stroke:none"
           id="path60" /></g><g
         id="g62"
         transform="translate(445.8101,798.2402)"><path
           d="M 0,0 C 1.52,0 3.07,0.25 4.58,0.78 7.778,1.882 10.318,4.03 11.952,6.709 10.677,5.709 9.227,4.89 7.61,4.33 5.99,3.77 4.33,3.5 2.71,3.5 c -6.22,0 -12.03,3.9 -14.18,10.1 -0.861,2.486 -1.025,5.043 -0.604,7.464 C -14.059,17.66 -14.611,13.448 -13.22,9.43 -11.22,3.64 -5.8,0 0,0"
           style="fill:#0baedd;fill-opacity:1;fill-rule:nonzero;stroke:none"
           id="path64" /></g><g
         id="g66"
         transform="translate(257.1997,596.5703)"><path
           d="m 0,0 c 1.14,-0.29 2.29,-0.42 3.41,-0.42 4.859,0 9.373,2.554 11.902,6.66 C 12.721,4.227 9.492,3.075 6.11,3.08 4.91,3.08 3.68,3.22 2.46,3.53 -5.227,5.454 -10.019,12.996 -8.653,20.69 -9.32,19.558 -9.844,18.319 -10.18,16.98 -12.06,9.48 -7.5,1.87 0,0"
           style="fill:#0baedd;fill-opacity:1;fill-rule:nonzero;stroke:none"
           id="path68" /></g><g
         id="g70"
         transform="translate(815.7053,648.5294)"><path
           d="m 0,0 c -0.967,-0.758 -2.03,-1.421 -3.205,-1.939 -1.96,-0.86 -4.01,-1.27 -6.031,-1.27 -5.769,0 -11.269,3.35 -13.74,8.97 -1.234,2.801 -1.536,5.775 -1.049,8.58 -2.176,-3.736 -2.608,-8.419 -0.73,-12.68 2.3,-5.25 7.439,-8.37 12.819,-8.37 1.88,0 3.79,0.38 5.63,1.19 C -3.582,-4.323 -1.439,-2.36 0,0"
           style="fill:#0baedd;fill-opacity:1;fill-rule:nonzero;stroke:none"
           id="path72" /></g><g
         id="g74"
         transform="translate(822.6494,597.2803)"><path
           d="M 0,0 C 3.684,0.933 6.648,3.249 8.491,6.247 6.899,5.003 5.034,4.057 2.95,3.53 1.71,3.22 0.48,3.07 -0.739,3.07 c -6.71,0 -12.811,4.53 -14.531,11.32 -0.537,2.129 -0.579,4.263 -0.219,6.292 C -17.295,17.616 -17.943,13.865 -17,10.14 -15.399,3.8 -9.699,-0.43 -3.439,-0.43 -2.31,-0.43 -1.149,-0.29 0,0"
           style="fill:#0baedd;fill-opacity:1;fill-rule:nonzero;stroke:none"
           id="path76" /></g><g
         id="g78"
         transform="translate(827,549.9502)"><path
           d="M 0,0 C 0.39,0 0.77,0.01 1.17,0.05 5.778,0.427 9.666,3.008 11.923,6.664 9.698,4.932 6.968,3.799 3.95,3.55 3.53,3.51 3.12,3.5 2.7,3.5 c -7.721,0 -14.29,5.93 -14.93,13.77 -0.109,1.312 -0.027,2.593 0.191,3.832 -1.42,-2.406 -2.146,-5.254 -1.901,-8.252 C -13.33,5.54 -7.21,0 0,0"
           style="fill:#0baedd;fill-opacity:1;fill-rule:nonzero;stroke:none"
           id="path80" /></g><g
         id="g82"
         transform="translate(793.0146,690.2933)"><path
           d="m 0,0 c -0.325,-0.253 -0.654,-0.503 -1.005,-0.733 -2.54,-1.66 -5.389,-2.46 -8.21,-2.46 -4.889,0 -9.679,2.39 -12.559,6.78 -2.175,3.32 -2.848,7.181 -2.213,10.805 -2.605,-4.441 -2.663,-10.153 0.352,-14.755 2.68,-4.1 7.16,-6.33 11.72,-6.33 2.63,0 5.29,0.74 7.66,2.29 C -2.466,-3.23 -1.047,-1.711 0,0"
           style="fill:#0baedd;fill-opacity:1;fill-rule:nonzero;stroke:none"
           id="path84" /></g><g
         id="g86"
         transform="translate(362.6299,752.9102)"><path
           d="M 0,0 C 3.02,0 6.06,0.97 8.62,2.98 9.965,4.031 11.049,5.286 11.896,6.658 9.155,4.531 5.923,3.5 2.7,3.5 c -4.45,0 -8.86,1.97 -11.82,5.75 -2.734,3.493 -3.659,7.812 -2.944,11.857 C -14.9,16.29 -14.686,10.037 -11.03,5.37 -8.27,1.84 -4.16,0 0,0"
           style="fill:#0baedd;fill-opacity:1;fill-rule:nonzero;stroke:none"
           id="path88" /></g><g
         id="g90"
         transform="translate(290.8999,685.3203)"><path
           d="m 0,0 c 2.36,-1.54 5.01,-2.27 7.63,-2.27 4.58,-0.01 9.06,2.23 11.74,6.35 0.075,0.115 0.134,0.235 0.205,0.351 C 16.913,2.346 13.65,1.22 10.33,1.22 7.52,1.22 4.68,2.01 2.16,3.66 -3.015,7.025 -5.412,13.041 -4.436,18.759 -8.175,12.354 -6.28,4.09 0,0"
           style="fill:#0baedd;fill-opacity:1;fill-rule:nonzero;stroke:none"
           id="path92" /></g><g
         id="g94"
         transform="translate(270.3496,642.3501)"><path
           d="m 0,0 c 1.83,-0.79 3.73,-1.17 5.6,-1.17 4.772,0 9.352,2.465 11.93,6.68 C 14.903,3.464 11.649,2.33 8.3,2.33 6.29,2.33 4.26,2.73 2.3,3.59 -4.169,6.411 -7.629,13.258 -6.457,19.918 -6.735,19.444 -6.995,18.956 -7.22,18.44 -10.32,11.35 -7.08,3.1 0,0"
           style="fill:#0baedd;fill-opacity:1;fill-rule:nonzero;stroke:none"
           id="path96" /></g><g
         id="g98"
         transform="translate(327.6997,720.6201)"><path
           d="m 0,0 c 3.79,0 7.56,1.53 10.33,4.54 0.627,0.684 1.168,1.416 1.634,2.179 C 9.263,4.591 5.993,3.5 2.7,3.5 c -3.62,0 -7.25,1.3 -10.13,3.94 -3.915,3.595 -5.477,8.782 -4.629,13.65 C -15.336,15.523 -14.409,8.229 -9.46,3.68 -6.77,1.22 -3.38,0 0,0"
           style="fill:#0baedd;fill-opacity:1;fill-rule:nonzero;stroke:none"
           id="path100" /></g><g
         id="g102"
         transform="translate(592.79,246.9404)"><path
           d="m 0,0 c -0.79,-0.12 -1.58,-0.181 -2.36,-0.181 -7.25,0 -13.63,5.281 -14.79,12.671 -0.267,1.69 -0.225,3.354 0.058,4.949 -1.599,-2.702 -2.303,-5.956 -1.778,-9.299 1.09,-6.9 7.04,-11.821 13.82,-11.821 0.72,0 1.449,0.051 2.19,0.171 4.202,0.66 7.661,3.132 9.731,6.49 C 4.933,1.469 2.599,0.41 0,0"
           style="fill:#0baedd;fill-opacity:1;fill-rule:nonzero;stroke:none"
           id="path104" /></g><g
         id="g106"
         transform="translate(755.7998,333.7998)"><path
           d="m 0,0 c -3.61,0 -7.24,1.301 -10.11,3.92 -3.937,3.596 -5.505,8.803 -4.645,13.688 -3.303,-5.584 -2.364,-12.895 2.615,-17.448 2.69,-2.45 6.07,-3.66 9.44,-3.66 3.8,0 7.58,1.53 10.34,4.551 C 8.262,1.732 8.8,2.46 9.263,3.219 6.563,1.093 3.293,0 0,0"
           style="fill:#0baedd;fill-opacity:1;fill-rule:nonzero;stroke:none"
           id="path108" /></g><g
         id="g110"
         transform="translate(729.8496,304.7803)"><path
           d="m 0,0 c -2.72,-2.08 -5.92,-3.08 -9.1,-3.08 -4.509,0 -8.969,2.03 -11.93,5.89 -2.654,3.471 -3.54,7.727 -2.834,11.715 -2.806,-4.762 -2.633,-10.945 0.934,-15.605 2.75,-3.61 6.92,-5.5 11.13,-5.5 2.97,0 5.95,0.94 8.49,2.87 1.411,1.078 2.545,2.378 3.421,3.804 C 0.073,0.064 0.039,0.03 0,0"
           style="fill:#0baedd;fill-opacity:1;fill-rule:nonzero;stroke:none"
           id="path112" /></g><g
         id="g114"
         transform="translate(751.8496,721.1001)"><path
           d="m 0,0 c 3.391,0 6.79,1.23 9.49,3.71 0.97,0.895 1.773,1.901 2.431,2.972 C 9.209,4.557 5.956,3.5 2.7,3.5 c -4.04,0 -8.07,1.63 -11.03,4.84 -3.302,3.578 -4.513,8.327 -3.728,12.776 C -15.114,15.936 -14.586,9.164 -10.3,4.51 -7.54,1.52 -3.77,0 0,0"
           style="fill:#0baedd;fill-opacity:1;fill-rule:nonzero;stroke:none"
           id="path116" /></g><g
         id="g118"
         transform="translate(708.2598,756.27)"><path
           d="m 0,0 c 2.55,-1.99 5.58,-2.96 8.59,-2.96 4.17,0 8.29,1.86 11.05,5.4 0.324,0.416 0.615,0.847 0.885,1.287 C 17.851,1.632 14.589,0.54 11.29,0.54 8.07,0.54 4.82,1.58 2.08,3.71 -2.438,7.232 -4.39,12.83 -3.479,18.108 -6.974,12.142 -5.604,4.364 0,0"
           style="fill:#0baedd;fill-opacity:1;fill-rule:nonzero;stroke:none"
           id="path120" /></g><g
         id="g122"
         transform="translate(806.4297,413.8301)"><path
           d="m 0,0 c -1.92,0 -3.86,0.37 -5.74,1.15 -6.615,2.738 -10.214,9.66 -9.027,16.424 -0.318,-0.544 -0.615,-1.105 -0.863,-1.704 -2.96,-7.14 0.43,-15.34 7.57,-18.3 1.75,-0.719 3.57,-1.07 5.36,-1.07 4.798,0 9.381,2.482 11.956,6.705 C 6.627,1.147 3.364,0 0,0"
           style="fill:#0baedd;fill-opacity:1;fill-rule:nonzero;stroke:none"
           id="path124" /></g><g
         id="g126"
         transform="translate(821.1299,459.0498)"><path
           d="m 0,0 c -1.17,0 -2.36,0.141 -3.55,0.431 -7.748,1.877 -12.596,9.46 -11.211,17.204 -0.69,-1.166 -1.224,-2.45 -1.559,-3.834 -1.82,-7.511 2.79,-15.08 10.31,-16.901 1.11,-0.269 2.22,-0.4 3.31,-0.4 4.864,0 9.375,2.562 11.9,6.669 C 6.612,1.155 3.383,0 0,0"
           style="fill:#0baedd;fill-opacity:1;fill-rule:nonzero;stroke:none"
           id="path128" /></g><g
         id="g130"
         transform="translate(784.5996,371.6006)"><path
           d="m 0,0 c -2.74,0 -5.5,0.75 -7.99,2.319 -5.285,3.337 -7.771,9.432 -6.773,15.236 C -18.55,11.068 -16.554,2.704 -10.149,-1.33 -7.83,-2.801 -5.25,-3.5 -2.7,-3.5 1.95,-3.5 6.49,-1.181 9.16,3.04 9.188,3.084 9.209,3.131 9.236,3.176 6.581,1.106 3.317,0 0,0"
           style="fill:#0baedd;fill-opacity:1;fill-rule:nonzero;stroke:none"
           id="path132" /></g><g
         id="g134"
         transform="translate(829.0693,505.9404)"><path
           d="m 0,0 c -0.51,0 -1.01,0.02 -1.529,0.069 -8.241,0.841 -14.25,8.191 -13.41,16.441 0.037,0.37 0.102,0.729 0.165,1.09 -0.997,-1.691 -1.664,-3.61 -1.875,-5.69 C -17.42,4.21 -11.819,-2.65 -4.13,-3.431 -3.649,-3.48 -3.17,-3.5 -2.699,-3.5 2.269,-3.5 6.73,-0.86 9.216,3.192 6.652,1.187 3.442,0 0,0"
           style="fill:#0baedd;fill-opacity:1;fill-rule:nonzero;stroke:none"
           id="path136" /></g><g
         id="g138"
         transform="translate(687.5098,277.9004)"><path
           d="m 0,0 c -2.21,-1.15 -4.58,-1.69 -6.91,-1.69 -5.41,0 -10.64,2.94 -13.319,8.07 -1.582,3.042 -2.004,6.373 -1.454,9.509 -2.353,-4.016 -2.665,-9.109 -0.357,-13.549 2.49,-4.79 7.38,-7.53 12.43,-7.53 2.18,0 4.39,0.509 6.45,1.58 2.337,1.216 4.173,3.006 5.457,5.099 C 1.587,0.936 0.826,0.431 0,0"
           style="fill:#0baedd;fill-opacity:1;fill-rule:nonzero;stroke:none"
           id="path140" /></g><g
         id="g142"
         transform="translate(495.6099,246.6299)"><path
           d="m 0,0 c -0.76,0 -1.54,0.061 -2.31,0.181 -8.19,1.259 -13.8,8.929 -12.53,17.12 0.015,0.097 0.042,0.189 0.059,0.285 -0.871,-1.482 -1.491,-3.144 -1.769,-4.945 C -17.74,5 -12.5,-2.149 -4.86,-3.33 -4.14,-3.449 -3.41,-3.5 -2.7,-3.5 2.225,-3.5 6.707,-0.885 9.207,3.194 6.632,1.183 3.418,0 0,0"
           style="fill:#0baedd;fill-opacity:1;fill-rule:nonzero;stroke:none"
           id="path144" /></g><g
         id="g146"
         transform="translate(539.2798,814)"><path
           d="M 0,0 H 0.72 C 5.767,0 10.178,2.682 12.642,6.689 10.096,4.698 6.9,3.5 3.42,3.5 H 2.69 c -8.26,0 -14.97,6.69 -14.99,14.96 -0.002,0.895 0.089,1.768 0.237,2.62 C -13.292,18.991 -14.007,16.562 -14,13.96 -13.98,6.24 -7.72,0 0,0"
           style="fill:#0baedd;fill-opacity:1;fill-rule:nonzero;stroke:none"
           id="path148" /></g><g
         id="g150"
         transform="translate(449.2998,257.5801)"><path
           d="m 0,0 c -1.52,0 -3.08,0.24 -4.61,0.73 -7.215,2.335 -11.436,9.624 -10.143,16.886 -0.512,-0.87 -0.945,-1.804 -1.267,-2.805 C -18.4,7.45 -14.36,-0.439 -7,-2.81 v -0.01 c 1.43,-0.46 2.88,-0.68 4.3,-0.68 4.836,0 9.395,2.534 11.94,6.703 C 6.629,1.162 3.383,0 0,0"
           style="fill:#0baedd;fill-opacity:1;fill-rule:nonzero;stroke:none"
           id="path152" /></g><g
         id="g154"
         transform="translate(543.0498,243.0205)"><path
           d="m 0,0 h -0.03 c -8.27,0 -14.98,6.71 -14.99,14.979 -0.002,0.889 0.088,1.755 0.234,2.602 -1.224,-2.085 -1.938,-4.506 -1.934,-7.102 0.01,-7.719 6.28,-13.979 14,-13.979 H -2.7 C 2.342,-3.487 6.745,-0.806 9.204,3.195 6.663,1.207 3.474,0.008 0,0"
           style="fill:#0baedd;fill-opacity:1;fill-rule:nonzero;stroke:none"
           id="path156" /></g><g
         id="g158"
         transform="translate(491.8799,810)"><path
           d="M 0,0 C 0.77,0 1.55,0.06 2.33,0.19 6.47,0.89 9.865,3.343 11.911,6.651 10.014,5.176 7.736,4.135 5.2,3.71 4.36,3.57 3.52,3.5 2.69,3.5 c -7.19,0 -13.54,5.19 -14.77,12.51 -0.291,1.737 -0.255,3.449 0.034,5.09 -1.616,-2.74 -2.316,-6.039 -1.744,-9.42 C -12.64,4.84 -6.72,0 0,0"
           style="fill:#0baedd;fill-opacity:1;fill-rule:nonzero;stroke:none"
           id="path160" /></g><g
         id="g162"
         transform="translate(641.3594,258.5703)"><path
           d="m 0,0 c -1.54,-0.5 -3.109,-0.74 -4.64,-0.74 -6.32,0 -12.2,4.03 -14.269,10.36 -0.781,2.404 -0.916,4.861 -0.512,7.19 -1.941,-3.329 -2.518,-7.43 -1.228,-11.38 1.92,-5.91 7.41,-9.67 13.309,-9.67 1.431,0 2.891,0.219 4.33,0.69 3.297,1.076 5.916,3.264 7.595,6.007 C 3.244,1.409 1.713,0.559 0,0"
           style="fill:#0baedd;fill-opacity:1;fill-rule:nonzero;stroke:none"
           id="path164" /></g><g
         id="g166"
         transform="translate(670.3896,781.0503)"><path
           d="m 0,0 h -0.01 c 2.12,-1.15 4.41,-1.69 6.66,-1.69 4.729,0 9.317,2.403 11.94,6.666 C 15.948,2.92 12.682,1.81 9.351,1.81 6.94,1.81 4.49,2.39 2.22,3.62 -3.584,6.769 -6.47,13.199 -5.405,19.366 -5.481,19.235 -5.567,19.114 -5.64,18.98 -9.33,12.18 -6.8,3.69 0,0"
           style="fill:#0baedd;fill-opacity:1;fill-rule:nonzero;stroke:none"
           id="path168" /></g><g
         id="g170"
         transform="translate(628.9502,799.2402)"><path
           d="m 0,0 c 1.51,-0.51 3.04,-0.76 4.55,-0.76 4.821,0 9.38,2.519 11.932,6.694 C 13.87,3.894 10.623,2.74 7.25,2.74 5.63,2.74 3.989,3 2.38,3.56 -4.723,5.988 -8.795,13.226 -7.501,20.388 -7.979,19.58 -8.383,18.713 -8.7,17.79 -11.21,10.47 -7.311,2.51 0,0"
           style="fill:#0baedd;fill-opacity:1;fill-rule:nonzero;stroke:none"
           id="path172" /></g><g
         id="g174"
         transform="translate(585.0996,810.3101)"><path
           d="m 0,0 c 0.78,-0.13 1.55,-0.19 2.311,-0.19 4.924,0 9.421,2.617 11.922,6.707 C 11.653,4.496 8.43,3.31 5.01,3.31 c -0.82,0 -1.64,0.06 -2.47,0.2 -8.17,1.35 -13.7,9.08 -12.35,17.25 0.006,0.036 0.017,0.07 0.024,0.107 C -10.625,19.433 -11.233,17.835 -11.52,16.1 -12.79,8.47 -7.62,1.26 0,0"
           style="fill:#0baedd;fill-opacity:1;fill-rule:nonzero;stroke:none"
           id="path176" /></g><g
         id="g178"
         transform="translate(628.0381,436.9795)"><path
           d="M 0,0 2.734,12.422 16.557,24.275 31.588,22.406 28.789,7.717 16.494,-1.269 Z"
           style="fill:#ffffff;fill-opacity:1;fill-rule:nonzero;stroke:none"
           id="path180" /></g><g
         id="g182"
         transform="translate(595.8535,431.7393)"><path
           d="M 0,0 1.517,6.858 14.543,17.516 28.252,16.475 26.033,4.226 13.439,-4.643 Z"
           style="fill:#ffffff;fill-opacity:1;fill-rule:nonzero;stroke:none"
           id="path184" /></g><g
         id="g186"
         transform="translate(643.7979,417.1406)"><path
           d="M 0,0 4.44,14.956 17.915,24.255 33.662,22.579 28.946,8.134 13.477,-3.253 Z"
           style="fill:#ffffff;fill-opacity:1;fill-rule:nonzero;stroke:none"
           id="path188" /></g><g
         id="g190"
         transform="translate(608.9902,409.9678)"><path
           d="M 0,0 3.013,12.05 17.826,21.926 33.065,21.077 28.936,8.2 13.242,-2.09 Z"
           style="fill:#ffffff;fill-opacity:1;fill-rule:nonzero;stroke:none"
           id="path192" /></g><g
         id="g194"
         transform="translate(578.209,410.1699)"><path
           d="M 0,0 0.342,8.459 12.244,17.453 26.365,11.969 24.233,2.977 12.85,-4.673 Z"
           style="fill:#ffffff;fill-opacity:1;fill-rule:nonzero;stroke:none"
           id="path196" /></g><g
         id="g198"
         transform="translate(652.9648,398.04)"><path
           d="M 0,0 4.137,9.565 20.456,20.989 30.773,18.431 27.269,8.037 11.752,-2.16 Z"
           style="fill:#ffffff;fill-opacity:1;fill-rule:nonzero;stroke:none"
           id="path200" /></g><g
         id="g202"
         transform="translate(619.6084,391.2314)"><path
           d="M 0,0 5.088,11.563 20.985,21.055 32.278,18.75 27.894,7.902 10.319,-1.834 Z"
           style="fill:#ffffff;fill-opacity:1;fill-rule:nonzero;stroke:none"
           id="path204" /></g><g
         id="g206"
         transform="translate(588.3604,388.1025)"><path
           d="M 0,0 2.995,9.911 14.32,17.46 29.452,14.202 26.254,5.976 13,-3.017 Z"
           style="fill:#ffffff;fill-opacity:1;fill-rule:nonzero;stroke:none"
           id="path208" /></g><g
         id="g210"
         transform="translate(573.0645,384.3125)"><path
           d="m 0,0 c -2.625,5.384 -3.223,10.705 -3.262,14.221 l -0.003,0.244 7.161,5.716 9.69,-3.594 L 10.164,5.294 0.235,-0.484 Z"
           style="fill:#ffffff;fill-opacity:1;fill-rule:nonzero;stroke:none"
           id="path212" /></g><g
         id="g214"
         transform="translate(666.9502,391.0518)"><path
           d="M 0,0 14.398,10.088 21.666,8.148 18.265,-0.448 4.368,-10.405 -3.896,-10.77 Z"
           style="fill:#ffffff;fill-opacity:1;fill-rule:nonzero;stroke:none"
           id="path216" /></g><g
         id="g218"
         transform="translate(629.5137,371.1074)"><path
           d="m 0,0 4.554,14.164 16.59,8.295 9.907,-2.302 L 26.86,7.148 10.965,-0.68 Z"
           style="fill:#ffffff;fill-opacity:1;fill-rule:nonzero;stroke:none"
           id="path220" /></g><g
         id="g222"
         transform="translate(598.1963,367.4092)"><path
           d="M 0,0 3.475,9.962 16.008,18.476 28.757,15.926 24.574,2.681 10.889,-4.634 Z"
           style="fill:#ffffff;fill-opacity:1;fill-rule:nonzero;stroke:none"
           id="path224" /></g><g
         id="g226"
         transform="translate(669.9297,366.2236)"><path
           d="M 0,0 2.788,9.234 16.373,18.88 21.643,14.375 19.528,3.672 5.37,-1.841 Z"
           style="fill:#ffffff;fill-opacity:1;fill-rule:nonzero;stroke:none"
           id="path228" /></g><g
         id="g230"
         transform="translate(586.2969,368.3994)"><path
           d="M 0,0 C -4.261,3.065 -7.034,5.689 -9.571,9.059 L -9.915,9.516 -1.181,14.424 9.93,11.595 6.969,3.305 0.249,-0.179 Z"
           style="fill:#ffffff;fill-opacity:1;fill-rule:nonzero;stroke:none"
           id="path232" /></g><g
         id="g234"
         transform="translate(648.5283,364.5889)"><path
           d="M 0,0 2.348,5.314 10.731,9.518 18.844,9.694 14.551,-1.871 7.914,-3.036 Z"
           style="fill:#ffffff;fill-opacity:1;fill-rule:nonzero;stroke:none"
           id="path236" /></g><g
         id="g238"
         transform="translate(659.6904,357.1289)"><path
           d="M 0,0 C 23.43,2.593 44.785,13.077 63.086,28.354 58.49,15.574 26.332,-13.946 8.53,-13.946 4.396,-13.946 4.276,-7.166 0,0"
           style="fill:#ffffff;fill-opacity:1;fill-rule:nonzero;stroke:none"
           id="path240" /></g><g
         id="g242"
         transform="translate(734.16,502.16)"><path
           d="m 0,0 c -19.916,-19.906 -46.832,-34.65 -69.488,-44.607 l -2.076,-10.923 17.723,-1.887 C -16.982,-38.242 45.04,8.741 45.04,64.94 c 0,32.95 -12.39,49.73 -20.53,49.73 -2.45,0 -4.4,-1.07 -5.51,-1.65 C 41.89,94.76 44.16,44.17 0,0"
           style="fill:#ffffff;fill-opacity:1;fill-rule:nonzero;stroke:none"
           id="path244" /></g><g
         id="g246"
         transform="translate(742.43,483.76)"><path
           d="m 0,0 c -14.279,-14.279 -33.535,-29.032 -59.41,-44.078 l -5.305,-16.258 6.704,-1.651 C -16.187,-37.724 44.69,9.577 44.69,71.46 c 0,4.95 -1.53,12.42 -4.5,15.66 C 40.35,85.63 47.1,47.1 0,0"
           style="fill:#ffffff;fill-opacity:1;fill-rule:nonzero;stroke:none"
           id="path248" /></g><g
         id="g250"
         transform="translate(563.94,394.54)"><path
           d="m 0,0 c 0,20.035 10.71,31.873 27.326,41.006 l 1.323,5.989 16.098,13.162 18.486,-1.399 15.752,13.509 22.404,-2.79 c 49.691,22.249 99.531,61.252 99.531,115.143 0,26.47 -20.32,41.15 -37.02,41.15 -18.22,0 -28.97,-11.62 -28.97,-25.75 0,-10.54 7.53,-20.17 19.04,-20.17 6.12,0 14.49,2.61 16.38,9.63 -5.85,-1.17 -18.58,-0.33 -18.58,11.43 0,5.51 5.08,11.7 13.09,11.7 14.31,0 23.51,-12.62 23.51,-28.48 0,-39.43 -52.01,-76.79 -74.81,-76.79 h -9.12 C 85.92,107.34 -18.17,74.15 -18.17,1.06 -18.17,-18.77 -8.24,-33 4.24,-33 c 4.47,0 7.29,1.71 11.97,3.96 C 4.77,-20.78 0,-8.01 0,0"
           style="fill:#ffffff;fill-opacity:1;fill-rule:nonzero;stroke:none"
           id="path252" /></g><g
         id="g254"
         transform="translate(690.074,418.6671)"><path
           d="m 0,0 -4.445,-13.185 7.636,-2.03 c 16.431,11.573 36.948,27.441 51.955,42.448 16.2,16.2 35.25,39.64 31.91,56.87 C 71.518,55.942 53.344,33.86 0,0"
           style="fill:#ffffff;fill-opacity:1;fill-rule:nonzero;stroke:none"
           id="path256" /></g><g
         id="g258"
         transform="translate(697.1321,381.4376)"><path
           d="m 0,0 -1.844,-9.362 c 10.059,5.358 21.05,12.352 29.192,19.164 9.88,8.27 27.72,26.46 28.8,39.42 C 44.514,33.138 21.846,13.697 0,0"
           style="fill:#ffffff;fill-opacity:1;fill-rule:nonzero;stroke:none"
           id="path260" /></g><g
         id="g262"
         transform="translate(694.4473,399.5188)"><path
           d="M 0,0 -4.265,-10.763 0.3,-14.665 c 18.692,12.263 37.696,28.068 53.443,45.006 15.41,16.55 16.58,24.26 15.49,31.84 C 55.065,39.9 25.124,16.324 0,0"
           style="fill:#ffffff;fill-opacity:1;fill-rule:nonzero;stroke:none"
           id="path264" /></g><g
         id="g266"
         transform="translate(451.9619,436.9795)"><path
           d="m 0,0 -2.734,12.422 -13.823,11.853 -15.031,-1.869 2.799,-14.689 12.295,-8.986 z"
           style="fill:#ffffff;fill-opacity:1;fill-rule:nonzero;stroke:none"
           id="path268" /></g><g
         id="g270"
         transform="translate(484.1465,431.7393)"><path
           d="m 0,0 -1.517,6.858 -13.026,10.658 -13.709,-1.041 2.219,-12.249 12.594,-8.869 z"
           style="fill:#ffffff;fill-opacity:1;fill-rule:nonzero;stroke:none"
           id="path272" /></g><g
         id="g274"
         transform="translate(436.2021,417.1406)"><path
           d="m 0,0 -4.44,14.956 -13.475,9.299 -15.747,-1.676 4.716,-14.445 15.469,-11.387 z"
           style="fill:#ffffff;fill-opacity:1;fill-rule:nonzero;stroke:none"
           id="path276" /></g><g
         id="g278"
         transform="translate(471.0098,409.9678)"><path
           d="M 0,0 -3.013,12.05 -17.826,21.926 -33.065,21.077 -28.936,8.2 -13.242,-2.09 Z"
           style="fill:#ffffff;fill-opacity:1;fill-rule:nonzero;stroke:none"
           id="path280" /></g><g
         id="g282"
         transform="translate(501.791,410.1699)"><path
           d="m 0,0 -0.342,8.459 -11.902,8.994 -14.121,-5.484 2.132,-8.992 11.383,-7.65 z"
           style="fill:#ffffff;fill-opacity:1;fill-rule:nonzero;stroke:none"
           id="path284" /></g><g
         id="g286"
         transform="translate(427.0352,398.04)"><path
           d="M 0,0 -4.137,9.565 -20.456,20.989 -30.773,18.431 -27.269,8.037 -11.752,-2.16 Z"
           style="fill:#ffffff;fill-opacity:1;fill-rule:nonzero;stroke:none"
           id="path288" /></g><g
         id="g290"
         transform="translate(460.3916,391.2314)"><path
           d="m 0,0 -5.088,11.563 -15.897,9.492 -11.293,-2.305 4.384,-10.848 17.575,-9.736 z"
           style="fill:#ffffff;fill-opacity:1;fill-rule:nonzero;stroke:none"
           id="path292" /></g><g
         id="g294"
         transform="translate(491.6396,388.1025)"><path
           d="M 0,0 -2.995,9.911 -14.32,17.46 -29.452,14.202 -26.254,5.976 -13,-3.017 Z"
           style="fill:#ffffff;fill-opacity:1;fill-rule:nonzero;stroke:none"
           id="path296" /></g><g
         id="g298"
         transform="translate(506.9355,384.3125)"><path
           d="m 0,0 c 2.625,5.384 3.223,10.705 3.262,14.221 l 0.003,0.244 -7.161,5.716 -9.69,-3.594 3.422,-11.293 9.929,-5.778 z"
           style="fill:#ffffff;fill-opacity:1;fill-rule:nonzero;stroke:none"
           id="path300" /></g><g
         id="g302"
         transform="translate(413.0498,391.0518)"><path
           d="m 0,0 -14.398,10.088 -7.268,-1.94 3.401,-8.596 13.897,-9.957 8.264,-0.365 z"
           style="fill:#ffffff;fill-opacity:1;fill-rule:nonzero;stroke:none"
           id="path304" /></g><g
         id="g306"
         transform="translate(450.4863,371.1074)"><path
           d="m 0,0 -4.554,14.164 -16.59,8.295 -9.907,-2.302 4.191,-13.009 15.895,-7.828 z"
           style="fill:#ffffff;fill-opacity:1;fill-rule:nonzero;stroke:none"
           id="path308" /></g><g
         id="g310"
         transform="translate(481.8037,367.4092)"><path
           d="m 0,0 -3.475,9.962 -12.533,8.514 -12.749,-2.55 4.183,-13.245 13.685,-7.315 z"
           style="fill:#ffffff;fill-opacity:1;fill-rule:nonzero;stroke:none"
           id="path312" /></g><g
         id="g314"
         transform="translate(410.0703,366.2236)"><path
           d="m 0,0 -2.788,9.234 -13.585,9.646 -5.27,-4.505 2.115,-10.703 14.158,-5.513 z"
           style="fill:#ffffff;fill-opacity:1;fill-rule:nonzero;stroke:none"
           id="path316" /></g><g
         id="g318"
         transform="translate(493.7031,368.3994)"><path
           d="m 0,0 c 4.261,3.065 7.034,5.689 9.571,9.059 l 0.344,0.457 -8.734,4.908 -11.111,-2.829 2.961,-8.29 6.72,-3.484 z"
           style="fill:#ffffff;fill-opacity:1;fill-rule:nonzero;stroke:none"
           id="path320" /></g><g
         id="g322"
         transform="translate(431.4717,364.5889)"><path
           d="m 0,0 -2.348,5.314 -8.383,4.204 -8.113,0.176 4.293,-11.565 6.637,-1.165 z"
           style="fill:#ffffff;fill-opacity:1;fill-rule:nonzero;stroke:none"
           id="path324" /></g><g
         id="g326"
         transform="translate(420.3096,357.1289)"><path
           d="m 0,0 c -23.43,2.593 -44.785,13.077 -63.086,28.354 4.596,-12.78 36.754,-42.3 54.556,-42.3 4.134,0 4.254,6.78 8.53,13.946"
           style="fill:#ffffff;fill-opacity:1;fill-rule:nonzero;stroke:none"
           id="path328" /></g><g
         id="g330"
         transform="translate(345.84,502.16)"><path
           d="M 0,0 C 19.916,-19.906 46.832,-34.65 69.488,-44.607 L 71.564,-55.53 53.841,-57.417 C 16.982,-38.242 -45.04,8.741 -45.04,64.94 c 0,32.95 12.39,49.73 20.53,49.73 2.45,0 4.4,-1.07 5.51,-1.65 C -41.89,94.76 -44.16,44.17 0,0"
           style="fill:#ffffff;fill-opacity:1;fill-rule:nonzero;stroke:none"
           id="path332" /></g><g
         id="g334"
         transform="translate(337.57,483.76)"><path
           d="m 0,0 c 14.279,-14.279 33.535,-29.032 59.41,-44.078 l 5.305,-16.258 -6.704,-1.651 C 16.187,-37.724 -44.69,9.577 -44.69,71.46 c 0,4.95 1.53,12.42 4.5,15.66 C -40.35,85.63 -47.1,47.1 0,0"
           style="fill:#ffffff;fill-opacity:1;fill-rule:nonzero;stroke:none"
           id="path336" /></g><g
         id="g338"
         transform="translate(516.06,394.54)"><path
           d="m 0,0 c 0,20.035 -10.71,31.873 -27.326,41.006 l -1.323,5.989 -16.098,13.162 -18.486,-1.399 -15.752,13.509 -22.404,-2.79 c -49.691,22.249 -99.531,61.252 -99.531,115.143 0,26.47 20.32,41.15 37.02,41.15 18.22,0 28.97,-11.62 28.97,-25.75 0,-10.54 -7.53,-20.17 -19.04,-20.17 -6.12,0 -14.49,2.61 -16.38,9.63 5.85,-1.17 18.58,-0.33 18.58,11.43 0,5.51 -5.08,11.7 -13.09,11.7 -14.31,0 -23.51,-12.62 -23.51,-28.48 0,-39.43 52.01,-76.79 74.81,-76.79 h 9.12 C -85.92,107.34 18.17,74.15 18.17,1.06 18.17,-18.77 8.24,-33 -4.24,-33 c -4.47,0 -7.29,1.71 -11.97,3.96 C -4.77,-20.78 0,-8.01 0,0"
           style="fill:#ffffff;fill-opacity:1;fill-rule:nonzero;stroke:none"
           id="path340" /></g><g
         id="g342"
         transform="translate(389.926,418.6671)"><path
           d="m 0,0 4.445,-13.185 -7.636,-2.03 c -16.431,11.573 -36.948,27.441 -51.955,42.448 -16.2,16.2 -35.25,39.64 -31.91,56.87 C -71.518,55.942 -53.344,33.86 0,0"
           style="fill:#ffffff;fill-opacity:1;fill-rule:nonzero;stroke:none"
           id="path344" /></g><g
         id="g346"
         transform="translate(382.8679,381.4376)"><path
           d="m 0,0 1.844,-9.362 c -10.059,5.358 -21.05,12.352 -29.192,19.164 -9.88,8.27 -27.72,26.46 -28.8,39.42 C -44.514,33.138 -21.846,13.697 0,0"
           style="fill:#ffffff;fill-opacity:1;fill-rule:nonzero;stroke:none"
           id="path348" /></g><g
         id="g350"
         transform="translate(385.5527,399.5188)"><path
           d="M 0,0 4.265,-10.763 -0.3,-14.665 c -18.692,12.263 -37.696,28.068 -53.443,45.006 -15.41,16.55 -16.58,24.26 -15.49,31.84 C -55.065,39.9 -25.124,16.324 0,0"
           style="fill:#ffffff;fill-opacity:1;fill-rule:nonzero;stroke:none"
           id="path352" /></g><g
         id="g354"
         transform="translate(636.9661,362.1785)"><path
           d="m 0,0 c -6.626,0 -19.168,-2.216 -28.511,-15.97 -4.307,7.739 -12.954,13.11 -24.515,13.11 -16.56,0 -26.893,-12.805 -43.94,-12.805 -17.047,0 -27.38,12.805 -43.94,12.805 -11.562,0 -20.208,-5.371 -24.515,-13.11 -9.343,13.754 -21.885,15.97 -28.511,15.97 -9.998,0 -22.811,-6.585 -22.811,-19.69 0,-13.405 10.893,-19.885 18.453,-19.885 5.964,0 10.862,4.226 11.544,9.265 -1.633,-0.735 -3.423,-1.084 -5.197,-1.084 -7.051,0 -10.94,4.726 -10.94,9.151 0,4.871 4.295,7.599 9.614,7.599 13.163,0 19.271,-13.156 23.416,-22.883 4.517,-10.597 12.327,-20.887 23.08,-20.887 12.24,0 18.467,9.504 18.467,17.064 0,4.32 -3.66,9.24 -8.58,9.36 0.18,-4.86 -2.063,-10.26 -8.52,-10.26 -6.097,0 -9.528,5.094 -9.528,11.4 0,7.002 5.808,13.02 13.968,13.02 5.431,0 20.709,-3.24 20.709,-21.256 0,-1.985 -0.154,-4.164 -0.489,-6.558 7.08,-1.611 15.933,-2.286 23.78,-2.286 7.847,0 16.7,0.675 23.78,2.286 -0.335,2.394 -0.489,4.573 -0.489,6.558 0,18.016 15.278,21.256 20.709,21.256 8.16,0 13.967,-6.018 13.967,-13.02 0,-6.306 -3.43,-11.4 -9.527,-11.4 -6.457,0 -8.7,5.4 -8.52,10.26 -4.92,-0.12 -8.58,-5.04 -8.58,-9.36 0,-7.56 6.227,-17.064 18.467,-17.064 10.753,0 18.563,10.29 23.079,20.887 4.146,9.727 10.253,22.883 23.417,22.883 5.319,0 9.613,-2.728 9.613,-7.599 0,-4.425 -3.888,-9.151 -10.939,-9.151 -1.774,0 -3.564,0.349 -5.197,1.084 0.682,-5.039 5.58,-9.265 11.544,-9.265 7.56,0 18.453,6.48 18.453,19.885 C 22.811,-6.585 9.998,0 0,0"
           style="fill:#ffffff;fill-opacity:1;fill-rule:nonzero;stroke:none"
           id="path356" /></g><g
         id="g358"
         transform="translate(555.6059,311.0157)"><path
           d="m 0,0 10.464,-21.158 c 4.78,-1.905 10.822,-0.423 14.13,1.006 C 18.85,-13.327 12.261,-3.048 9.299,1.573 5.616,0.761 3.337,0.353 0,0"
           style="fill:#ffffff;fill-opacity:1;fill-rule:nonzero;stroke:none"
           id="path360" /></g><g
         id="g362"
         transform="translate(542.0696,309.9148)"><path
           d="m 0,0 1.127,-21.377 c 4.061,-2.156 11.588,-2.804 16.492,1.165 L 9.028,0.575 C 6.096,0.298 2.643,0 0,0"
           style="fill:#ffffff;fill-opacity:1;fill-rule:nonzero;stroke:none"
           id="path364" /></g><g
         id="g366"
         transform="translate(515.0947,312.5886)"><path
           d="m 0,0 c -2.961,-4.62 -9.551,-14.9 -15.294,-21.725 3.307,-1.429 9.349,-2.911 14.13,-1.005 L 9.299,-1.573 C 5.963,-1.22 3.683,-0.812 0,0"
           style="fill:#ffffff;fill-opacity:1;fill-rule:nonzero;stroke:none"
           id="path368" /></g><g
         id="g370"
         transform="translate(520.3112,289.7024)"><path
           d="m 0,0 c 4.904,-3.969 12.431,-3.32 16.492,-1.164 l 1.127,21.376 c -2.643,0 -6.096,0.298 -9.028,0.575 z"
           style="fill:#ffffff;fill-opacity:1;fill-rule:nonzero;stroke:none"
           id="path372" /></g><g
         id="g374"
         transform="translate(662.8496,577.8999)"><path
           d="M 0,0 V -14.3 H 13 V -39 H -26 V -53.3 H 27.301 V 0 Z"
           style="fill:#ffffff;fill-opacity:1;fill-rule:nonzero;stroke:none"
           id="path376" /></g><path
         d="M 651.15,616.9 H 636.849 V 550.6 H 651.15 Z"
         style="fill:#ffffff;fill-opacity:1;fill-rule:nonzero;stroke:none"
         id="path378" /><path
         d="m 545.85,576.6 h 14.301 v 14.3 H 545.85 Z"
         style="fill:#ffffff;fill-opacity:1;fill-rule:nonzero;stroke:none"
         id="path380" /><path
         d="m 571.85,576.6 h 14.301 v 14.3 H 571.85 Z"
         style="fill:#ffffff;fill-opacity:1;fill-rule:nonzero;stroke:none"
         id="path382" /><path
         d="m 558.85,602.6 h 14.301 v 14.3 H 558.85 Z"
         style="fill:#ffffff;fill-opacity:1;fill-rule:nonzero;stroke:none"
         id="path384" /><path
         d="m 610.85,589.6 h 14.301 v 14.3 H 610.85 Z"
         style="fill:#ffffff;fill-opacity:1;fill-rule:nonzero;stroke:none"
         id="path386" /><path
         d="m 493.85,628.6 h 27.3 v 7.8 h -27.3 z"
         style="fill:#ffffff;fill-opacity:1;fill-rule:nonzero;stroke:none"
         id="path388" /><path
         d="m 547.15,779.4 h -14.3 v -14.3 h 14.3 z"
         style="fill:#ffffff;fill-opacity:1;fill-rule:nonzero;stroke:none"
         id="path390" /><path
         d="m 456.15,563.6 h 24.7 v -24.7 h -24.7 z m 154.7,-24.7 h -11.692 v 26 h -14.301 v -26 h -11.699 v 26 h -14.301 v -26 h -11.699 v 26 h -14.3 v -26 H 495.15 l 0.008,63.7 h 38.992 v 14.3 h -53.3 v -39 h -24.7 v 39 h -14.3 v -92.3 h 183.3 v 53.3 h -14.3 z"
         style="fill:#ffffff;fill-opacity:1;fill-rule:nonzero;stroke:none"
         id="path392" /><path
         d="m 415.842,538.9 h -11.7 v 24.7 h 11.7 z M 389.85,524.6 h 40.3 v 53.3 h -40.3 z"
         style="fill:#ffffff;fill-opacity:1;fill-rule:nonzero;stroke:none"
         id="path394" /><path
         d="m 664.158,746.892 h -14.301 v -14.3 h 14.301 z"
         style="fill:#ffffff;fill-opacity:1;fill-rule:nonzero;stroke:none"
         id="path396" /><path
         d="m 638.158,746.892 h -14.301 v -14.3 h 14.301 z"
         style="fill:#ffffff;fill-opacity:1;fill-rule:nonzero;stroke:none"
         id="path398" /><path
         d="m 599.15,667.6 h 11.699 V 655.9 H 599.15 Z m 0,26 h 11.699 V 681.9 H 599.15 Z m 52,27.292 h -14.3 V 681.9 h -11.7 v 26 h -40.3 v -26 h -37.7 v 31.629 c 29.685,3.578 52,28.715 52,58.711 v 7.15 h -14.3 v -7.15 c 0,-21.915 -16.154,-40.816 -37.7,-44.274 V 753.4 h -14.3 v -25.434 c -21.546,3.458 -37.7,22.359 -37.7,44.274 v 7.15 h -14.3 v -7.15 c 0,-15.813 6.155,-30.665 17.33,-41.819 9.315,-9.333 21.607,-15.317 34.67,-16.893 V 681.9 h -65 v -39 h -26 v -14.3 h 40.3 v 39 h 50.7 v -26 h 14.3 v 26 h 37.7 v -26 h 40.3 v 26 h 26 z"
         style="fill:#ffffff;fill-opacity:1;fill-rule:nonzero;stroke:none"
         id="path400" /></g></g></svg>
